<?xml version="1.0" encoding="UTF-8" standalone="no"?>
<!-- Generator: Adobe Illustrator 19.1.0, SVG Export Plug-In . SVG Version: 6.00 Build 0)  -->

<svg
   xmlns:x="adobe:ns:meta/"
   xmlns:dc="http://purl.org/dc/elements/1.1/"
   xmlns:cc="http://creativecommons.org/ns#"
   xmlns:rdf="http://www.w3.org/1999/02/22-rdf-syntax-ns#"
   xmlns:svg="http://www.w3.org/2000/svg"
   xmlns="http://www.w3.org/2000/svg"
   xmlns:sodipodi="http://sodipodi.sourceforge.net/DTD/sodipodi-0.dtd"
   xmlns:inkscape="http://www.inkscape.org/namespaces/inkscape"
   version="1.1"
   id="Layer_1"
   x="0px"
   y="0px"
   viewBox="0 0 72 72"
   style="enable-background:new 0 0 72 72;"
   xml:space="preserve"
   inkscape:version="0.91 r13725"
   sodipodi:docname="salt-icon.svg"
   inkscape:export-filename="/home/smcintyre/workspace/uncharted/salt/imgs/salt-icon.png"
   inkscape:export-xdpi="80"
   inkscape:export-ydpi="80"><defs
     id="defs15" /><sodipodi:namedview
     pagecolor="#ffffff"
     bordercolor="#666666"
     borderopacity="1"
     objecttolerance="10"
     gridtolerance="10"
     guidetolerance="10"
     inkscape:pageopacity="0"
     inkscape:pageshadow="2"
     inkscape:window-width="1301"
     inkscape:window-height="744"
     id="namedview13"
     showgrid="false"
     inkscape:zoom="3.2777778"
     inkscape:cx="35.694915"
     inkscape:cy="36"
     inkscape:window-x="65"
     inkscape:window-y="24"
     inkscape:window-maximized="1"
     inkscape:current-layer="Layer_1" /><metadata
     id="metadata3"><?xpacket begin="ÿ" id="W5M0MpCehiHzreSzNTczkc9d"?><x:xmpmeta
       x:xmptk="Adobe XMP Core 5.6-c067 79.157747, 2015/03/30-23:40:42        "><metadata><rdf:RDF><rdf:Description
             rdf:about="" /><cc:Work
             rdf:about=""><dc:format>image/svg+xml</dc:format><dc:type
               rdf:resource="http://purl.org/dc/dcmitype/StillImage" /><dc:title></dc:title></cc:Work></rdf:RDF></metadata></x:xmpmeta><?xpacket end="w"?></metadata><style
     type="text/css"
     id="style5">
	.st0{fill:#231F20;}
</style><g
     id="g7"
     transform="matrix(0.96592583,0.25881905,-0.25881905,0.96592583,15.122477,-9.9071385)"
     style="fill:#dddddf;fill-opacity:0.94117647"><path
       class="st0"
       d="m 45,14.4 c 0.6,0 1.3,0.1 1.9,0.3 C 46,9.4 42.7,3.6 36,3.6 29.3,3.6 26,9.4 25.1,14.7 25.7,14.5 26.3,14.4 27,14.4 l 18,0 z"
       id="path9"
       inkscape:connector-curvature="0"
       style="fill:#dddddf;fill-opacity:0.94117647" /><path
       class="st0"
       d="M 54.7,64 48.8,20.3 c -0.1,-0.7 -0.3,-1.3 -0.7,-1.8 -0.8,-0.6 -1.9,-1.1 -3,-1.1 l -18.1,0 c -1.1,0 -2.2,0.4 -3,1.1 -0.3,0.6 -0.6,1.2 -0.7,1.8 l -6,43.7 c -0.3,2.4 1.4,4.4 3.9,4.4 l 29.7,0 c 2.4,0 4.1,-2 3.8,-4.4 z M 36.1,49.8 c -3.5,0 -6.1,-1.2 -7.8,-2.9 l 2.1,-3 c 1.3,1.3 3.3,2.5 5.8,2.5 2.1,0 3.2,-1 3.2,-2 0,-1.3 -1.7,-1.7 -3.7,-2.2 -3,-0.7 -6.9,-1.5 -6.9,-5.7 0,-3.1 2.6,-5.6 7,-5.6 2.9,0 5.3,0.9 7.2,2.6 l -2.2,2.9 c -1.5,-1.4 -3.5,-2 -5.3,-2 -1.7,0 -2.6,0.7 -2.6,1.8 0,1.2 1.7,1.6 3.7,2 3,0.7 6.9,1.6 6.9,5.8 -0.1,3.3 -2.5,5.8 -7.4,5.8 z"
       id="path11"
       inkscape:connector-curvature="0"
       style="fill:#dddddf;fill-opacity:0.94117647" /></g></svg>